<svg xmlns="http://www.w3.org/2000/svg" width="117" height="117"><path fill="#1A5DC6" d="M0 0h117v117H0z"/><path fill="#F0F4FA" d="M75.438 42.813C78 43 78 43 80 45c.259 2.582.259 2.582.266 5.813l.007 3.507L80.25 58l.023 3.68-.007 3.508-.007 3.23C80 71 80 71 78 73c-2.562.188-2.562.188-5 0-1.83-1.83-1.13-4.732-1.133-7.187l-.004-3.805.007-1.991q.005-3.013-.007-6.025l.004-3.804.004-3.52c.174-3.595.174-3.595 3.567-3.855M56 43c2-.043 4-.04 6 0 2.7 2.7 1.186 10.797 1.188 14.438l.037 3.837.005 3.659.013 3.376C63 71 63 71 61 73c-2.625.125-2.625.125-5 0-1.346-2.693-1.13-4.801-1.133-7.812l-.004-3.508.012-3.68-.012-3.68.008-6.738C55 45 55 45 56 43M42.563 42.813C45 43 45 43 46 44c.1 2.06.13 4.125.133 6.188l.004 3.804-.007 1.991c-.005 2.009 0 4.017.007 6.025l-.004 3.804-.004 3.52C46 72 46 72 45 73c-2.437.188-2.437.188-5 0-2.685-2.685-2.258-4.065-2.266-7.812l-.007-3.508.023-3.68-.023-3.68.007-3.508.007-3.23c.36-3.58 1.218-4.506 4.822-4.77"/><path fill="#ECF2FA" d="M85 27c4.305 2.236 7.602 4.758 10 9 .427 3.375.513 6.632 0 10l-2 2c-2.625-.375-2.625-.375-5-1l-.367-1.898-.508-2.477-.492-2.46c-.5-2.352-.5-2.352-2.633-4.165-1.94-.421-1.94-.421-4.062-.562C76 35 76 35 75 34c-.04-2-.043-4 0-6 3.216-1.608 6.511-1.469 10-1"/><path fill="#EDF2FA" d="M89 68c4.706.706 4.706.706 6 2 .59 4.602.432 8.12-1.625 12.313-3.15 3.565-5.812 6.385-10.727 6.964-2.254.033-4.412.01-6.648-.277-1-1-1-1-1.125-4C75 82 75 82 76 81c2.028-.225 4.057-.448 6.09-.621 2.143-.241 2.143-.241 3.91-2.379.64-2.164.64-2.164 1.063-4.562.84-4.34.84-4.34 1.937-5.438"/><path fill="#EDF3FA" d="m41 27 2 2c-.375 3.125-.375 3.125-1 6l-3.875.375C34.652 35.69 34.652 35.69 32 38c-.677 2.197-.677 2.197-1.125 4.625l-.508 2.477L30 47c-2.375.625-2.375.625-5 1-2.44-2.44-2.376-3.316-2.5-6.687.086-4.962 1.426-7.397 4.797-10.938C31.833 26.713 35.332 26.635 41 27"/><path fill="#F3F6FB" d="M25 68c2.625.375 2.625.375 5 1l.367 1.898.508 2.477.492 2.46c.5 2.352.5 2.352 2.633 4.165 2.655.565 5.291.738 8 1l1 7c-3.219 1.61-6.51 1.462-10 1-4.797-2.398-7.637-5.183-10-10-.411-3.049-.523-5.962 0-9z"/><path fill="#E9EDF2" d="M0 96c1.164 1.746 2.294 3.517 3.332 5.34C7.52 108.688 11.257 112.399 19 116v1H0z"/><path fill="#E1E7F1" d="M116 99h1v18H97a439 439 0 0 1 7.063-4.625l2.097-1.352C108 110 108 110 110 110l.75-1.562c1.646-3.21 3.448-6.314 5.25-9.438"/><path fill="#ECEFF3" d="M0 0h17c-5 4-5 4-6.879 5.352C4.87 9.324 2.97 13.812 1 20H0z"/><path fill="#E9ECF3" d="M100 0h17v16c-1.725-2.3-3.44-4.608-5.125-6.937C108.679 5.198 104.435 3.184 100 1z"/><path fill="#447CD9" d="m13 2 2 1L4 14l-1-2a832 832 0 0 1 3.313-3.875l1.863-2.18C10 4 10 4 13 2"/><path fill="#C7D8F0" d="M25 68c2.625.375 2.625.375 5 1l-1 2c-2.062.625-2.062.625-4 1l-1 7h-1a293 293 0 0 1-.125-4.375l-.07-2.46C23 70 23 70 25 68"/></svg>