<svg xmlns="http://www.w3.org/2000/svg" xml:space="preserve" viewBox="0 0 512 512"><path fill="#1F6AD4" d="M513 180c0 48.688 0 97.375-.325 146.666-1.018 2.063-1.895 3.464-2.376 4.99-9.47 29.989-22.8 57.886-41.913 83.155-13.133 17.363-27.904 32.96-44.56 46.715-27.244 22.497-57.999 38.65-91.98 48.57-1.748.51-3.236 1.915-4.846 2.904-49.02 0-98.042 0-147.648-.333-1.477-1.023-2.27-1.972-3.277-2.36-6.518-2.51-13.12-4.806-19.626-7.344-19.488-7.604-37.668-17.77-54.56-29.954-14.68-10.588-28.765-22.128-40.411-36.149-9.446-11.372-18.942-22.792-27.287-34.966-12.758-18.613-22.11-39.054-29.315-60.468C4.198 339.411 2.32 337.8 1 336c0-48.688 0-97.375.33-146.643 1.486-2.705 3.057-4.705 3.735-6.972 8.482-28.327 21.294-54.578 38.513-78.543 11.163-15.538 23.991-29.65 38.334-42.496 15.35-13.748 31.688-26.073 50.092-35.075 16.684-8.161 34.292-14.427 51.446-21.641 2.004-.843 3.707-2.403 5.55-3.63 49.02 0 98.042 0 147.639.326 1.988 1.427 3.246 2.886 4.838 3.568 6.566 2.812 13.23 5.396 19.863 8.05 26.712 10.685 50.634 26.036 71.94 45.12 17.356 15.545 32.827 32.893 45.462 52.757 13.031 20.485 23.854 41.875 31.29 64.99.499 1.554 1.956 2.8 2.968 4.189m-65.804 238.692c6.957-9.299 14.57-18.185 20.736-27.983 12.804-20.35 22.695-42.088 29.202-65.367 6.444-23.054 10.2-46.549 9.564-70.356-.45-16.844-2.635-33.824-5.917-50.372-6.142-30.968-18.156-59.727-36.213-85.838-14.24-20.592-29.862-39.683-49.985-55.134-15.384-11.813-31.08-22.764-48.57-31.173-35.842-17.23-73.45-25.6-113.346-24.661-20.086.472-39.708 2.645-59.134 7.744-22.572 5.925-43.783 14.98-63.83 26.738-19.467 11.417-37.315 25.165-52.789 41.55-17.06 18.063-31.442 38.19-42.678 60.513-11.163 22.179-18.702 45.503-23.226 69.839-3.69 19.843-3.94 39.892-2.975 59.978.271 5.638.334 11.35 1.332 16.877 3.46 19.172 7.577 38.174 14.882 56.372 11.778 29.339 27.572 56.12 49.664 78.905 7.267 7.496 14.889 14.67 22.647 21.66 15.572 14.03 33.195 25.177 52.143 33.857 13.094 5.998 26.962 10.362 40.624 15.05 19.996 6.865 40.882 9.231 61.806 9.856 13.203.394 26.536-1.181 39.712-2.717 41.589-4.85 79.118-20.675 112.871-44.872 15.87-11.377 31.01-24.121 43.48-40.466"/><path fill="#236DD8" d="M106 1c12.02 0 24.042 0 36.453.343-.91 1.508-2.05 2.966-3.542 3.783-4.217 2.311-8.65 4.229-12.87 6.534-17.367 9.486-34.236 19.808-48.8 33.308C65.949 55.435 54.549 65.95 44.536 77.596c-15.95 18.553-29.084 39.147-39.597 61.338C4.174 140.549 2.338 141.656 1 143c0-12.02 0-24.042.37-36.302.712-.586 1.298-.894 1.364-1.288 2.336-13.976 7.494-26.918 14.232-39.3 7.482-13.749 17.336-25.751 29.311-35.575C63.358 16.523 82.72 6.64 104.814 2.86c.487-.083.795-1.216 1.186-1.86"/><path fill="#216BD5" d="M513 179.531c-1.012-.92-2.469-2.166-2.969-3.72-7.435-23.115-18.258-44.505-31.289-64.99-12.635-19.864-28.106-37.212-45.461-52.757-21.307-19.084-45.23-34.435-71.94-45.12-6.634-2.654-13.298-5.238-19.864-8.05-1.592-.682-2.85-2.14-4.37-3.568C353.022 1 369.043 1 385.61 1.335c1.98 1.656 3.249 3.237 4.87 4.256 8.844 5.56 18.098 10.527 26.596 16.564 11.199 7.956 22.427 16.053 32.578 25.263 22.289 20.224 40.665 43.709 55.23 70.136 2.244 4.07 5.388 7.643 8.116 11.446zM327.469 513c1.14-.989 2.629-2.394 4.378-2.905 33.98-9.92 64.735-26.072 91.979-48.569 16.656-13.754 31.427-29.352 44.56-46.715 19.113-25.269 32.443-53.166 41.913-83.155.481-1.526 1.358-2.927 2.376-4.521a1203 1203 0 0 1-.002 48.508c-2.711 4.89-5.122 9.186-7.476 13.512-16.46 30.24-37.237 57.031-63.38 79.566-17.843 15.382-37.008 28.756-58.234 39.108-2.721 1.327-5.065 3.428-7.583 5.171z"/><path fill="#236ED9" d="M376.469 513c2.05-1.743 4.393-3.844 7.114-5.171 21.226-10.352 40.391-23.726 58.235-39.108 26.142-22.535 46.919-49.325 63.379-79.566 2.354-4.326 4.765-8.622 7.476-13.043a467 467 0 0 1-.041 31.186c-.712.584-1.298.89-1.365 1.286-2.351 13.97-7.49 26.92-14.233 39.302-7.487 13.748-17.335 25.756-29.315 35.579-17.084 14.008-36.443 23.9-58.542 27.674-.484.083-.789 1.217-1.177 1.861z"/><path fill="#216BD5" d="M1 143.469c1.338-1.813 3.174-2.92 3.939-4.535 10.513-22.191 23.647-42.785 39.597-61.338C54.55 65.95 65.95 55.436 77.241 44.968c14.564-13.5 31.433-23.822 48.8-33.308 4.22-2.305 8.653-4.223 12.87-6.534 1.491-.817 2.632-2.275 4.01-3.783C158.022 1 173.042 1 188.532 1c-1.374 1.227-3.077 2.787-5.081 3.63-17.154 7.214-34.762 13.48-51.446 21.64C113.6 35.274 97.26 47.599 81.912 61.347c-14.343 12.846-27.17 26.958-38.334 42.496-17.219 23.965-30.031 50.216-38.513 78.543-.678 2.267-2.25 4.267-3.735 6.503C1 173.979 1 158.958 1 143.468"/><path d="M408 1h105c0 34.687 0 69.375-.368 104.765-.712.353-1.25.062-1.371-.351-2.46-8.403-4.143-17.117-7.433-25.177-8.72-21.36-22.354-39.204-40.786-53.22-16.07-12.218-33.9-20.563-53.865-24.155-.488-.088-.789-1.218-1.177-1.862M106 513H1c0-34.687 0-69.375.368-104.765.712-.353 1.298-.046 1.365.348 2.352 13.971 7.49 26.922 14.233 39.302 7.487 13.749 17.335 25.757 29.315 35.58 17.084 14.008 36.443 23.9 58.542 27.674.484.083.789 1.217 1.177 1.861M105.531 1c.078.644-.23 1.777-.717 1.86-22.095 3.78-41.456 13.663-58.537 27.675-11.975 9.824-21.83 21.826-29.311 35.576C10.228 78.49 5.07 91.434 2.734 105.41c-.066.394-.652.702-1.365.82C1 71.073 1 36.146 1 1zM408.469 513c-.08-.644.224-1.778.708-1.861 22.1-3.774 41.458-13.666 58.542-27.674 11.98-9.823 21.828-21.831 29.315-35.58 6.743-12.38 11.882-25.33 14.233-39.301.067-.395.653-.702 1.365-.817C513 442.927 513 477.854 513 513z"/><path fill="#216BD5" d="M1 336.469c1.32 1.33 3.198 2.942 3.876 4.957 7.205 21.414 16.557 41.855 29.315 60.468 8.345 12.174 17.841 23.594 27.287 34.966 11.646 14.02 25.73 25.561 40.411 36.149 16.892 12.183 35.072 22.35 54.56 29.954 6.506 2.538 13.108 4.833 19.626 7.344 1.008.388 1.8 1.337 2.808 2.36-12.237.333-24.591.333-37.526.006-2.988-1.684-5.353-3.124-7.81-4.384-21.481-11.024-41.627-23.97-59.866-39.93-17.331-15.166-33.075-31.78-46.029-50.75-8.203-12.013-14.8-25.118-22.245-37.658C4.3 378.086 2.487 376.64 1 375z"/><path fill="#236ED9" d="M407.531 1c.857.644 1.158 1.774 1.646 1.862 19.965 3.592 37.795 11.937 53.865 24.156 18.432 14.015 32.066 31.86 40.786 53.22 3.29 8.059 4.974 16.773 7.433 25.176.12.413.659.704 1.37.82.369 7.12.369 14.474.369 22.297-2.728-3.334-5.872-6.907-8.116-10.977-14.565-26.427-32.941-49.912-55.23-70.136-10.151-9.21-21.38-17.307-32.578-25.263-8.498-6.037-17.752-11.004-26.595-16.564-1.622-1.02-2.891-2.6-4.402-4.256C393.02 1 400.042 1 407.53 1"/><path fill="#236DD8" d="M1 375.469c1.487 1.171 3.3 2.617 4.407 4.482 7.445 12.54 14.042 25.645 22.245 37.658 12.954 18.97 28.698 35.584 46.03 50.75 18.238 15.96 38.384 28.906 59.866 39.93 2.456 1.26 4.82 2.7 7.34 4.384-9.242.327-18.596.327-28.454-.027-1.711-1.603-2.763-3.068-4.15-4.068-14.236-10.27-29.444-19.414-42.597-30.913-22.288-19.485-41.854-41.628-57.148-67.272C6.942 407.715 3.556 406.105 1 404z"/><path fill="#236ED9" d="M1 404.4c2.556 1.705 5.942 3.315 7.54 5.993 15.293 25.644 34.859 47.787 57.147 67.272 13.153 11.499 28.361 20.644 42.598 30.913 1.386 1 2.438 2.465 3.68 4.068-1.68.354-3.394.354-5.537.354-.816-.644-1.12-1.778-1.605-1.86-22.1-3.774-41.458-13.667-58.542-27.675-11.98-9.823-21.828-21.831-29.315-35.58-6.743-12.38-11.881-25.331-14.233-39.302-.067-.394-.653-.702-1.365-.816C1 406.933 1 405.867 1 404.4"/><path fill="#1D69D2" d="M447.004 418.991c-12.277 16.046-27.418 28.79-43.288 40.167-33.753 24.197-71.282 40.022-112.871 44.872-13.176 1.536-26.51 3.111-39.712 2.717-20.924-.625-41.81-2.991-61.806-9.855-13.662-4.69-27.53-9.053-40.624-15.051-18.948-8.68-36.571-19.826-52.143-33.856-7.758-6.99-15.38-14.165-22.647-21.66-22.092-22.786-37.886-49.567-49.664-78.906-7.305-18.198-11.421-37.2-14.882-56.372-.998-5.526-1.06-11.239-1.332-16.877-.964-20.086-.714-40.135 2.975-59.978 4.524-24.336 12.063-47.66 23.226-69.839 11.236-22.323 25.619-42.45 42.678-60.514 15.474-16.384 33.322-30.132 52.789-41.55 20.047-11.757 41.258-20.812 63.83-26.737 19.426-5.099 39.048-7.272 59.134-7.744 39.896-.938 77.504 7.432 113.345 24.661 17.491 8.409 33.187 19.36 48.571 31.173 20.123 15.45 35.744 34.542 49.985 55.134 18.057 26.111 30.071 54.87 36.213 85.838 3.282 16.548 5.467 33.528 5.917 50.372.636 23.807-3.12 47.302-9.564 70.356-6.507 23.28-16.398 45.017-29.202 65.367-6.165 9.798-13.779 18.684-20.928 28.282M86.117 96.593c-2.045 2.61-3.912 5.384-6.162 7.802-14.774 15.878-25.616 34.275-35.027 53.666-12.977 26.738-19.579 55.173-21.726 84.563-1.346 18.412-.593 36.964 3.067 55.182 6.148 30.596 16.637 59.497 33.766 85.833 12.24 18.816 26.804 35.58 43.612 50.357 6.724 5.911 13.728 11.743 21.384 16.304 13.25 7.893 26.86 15.285 40.772 21.942 18.574 8.888 38.459 14.28 58.828 16.493 15.598 1.696 31.48.604 47.203 1.379 13.732.677 26.766-2.82 39.888-5.642 20.45-4.4 39.68-12.238 57.998-22.325 21.295-11.728 40.287-26.395 56.952-44.118a251.6 251.6 0 0 0 29.566-38.173c9.764-15.462 17.038-31.946 22.86-49.192 6.097-18.058 10.031-36.612 11.427-55.544.94-12.747 1.206-25.733-.125-38.413-1.745-16.632-4.927-33.077-10.036-49.21-6.896-21.78-16.378-42.152-29.106-61.011-14.225-21.077-31.145-39.895-51.588-54.98-12.632-9.32-26.47-17.128-40.257-24.727-15.512-8.55-32.287-14.333-49.647-17.715-13.003-2.533-26.255-4.389-39.472-5.06-14.382-.73-28.963-.785-43.255.754-18.865 2.031-37.09 7.378-54.905 14.215-16.099 6.178-31.566 13.542-45.259 23.881-13.873 10.475-26.823 22.173-40.758 33.739"/><path fill="#1C67D0" d="M86.408 96.391c13.644-11.364 26.594-23.062 40.467-33.537 13.693-10.339 29.16-17.703 45.259-23.881 17.816-6.837 36.04-12.184 54.905-14.215 14.292-1.54 28.873-1.484 43.255-.754 13.217.671 26.47 2.527 39.472 5.06 17.36 3.382 34.135 9.165 49.647 17.715 13.786 7.599 27.625 15.407 40.257 24.728 20.443 15.084 37.363 33.902 51.588 54.979 12.728 18.86 22.21 39.231 29.106 61.01 5.109 16.134 8.291 32.579 10.036 49.21 1.33 12.68 1.065 25.667.125 38.414-1.396 18.932-5.33 37.486-11.427 55.544-5.822 17.246-13.096 33.73-22.86 49.192a251.6 251.6 0 0 1-29.566 38.173c-16.665 17.723-35.657 32.39-56.952 44.118-18.318 10.087-37.548 17.925-57.998 22.325-13.122 2.822-26.156 6.319-39.888 5.642-15.724-.775-31.605.317-47.203-1.379-20.37-2.214-40.254-7.605-58.828-16.493-13.912-6.657-27.522-14.049-40.772-21.942-7.656-4.56-14.66-10.393-21.384-16.304-16.808-14.778-31.373-31.54-43.612-50.357-17.13-26.336-27.618-55.237-33.766-85.833-3.66-18.218-4.413-36.77-3.067-55.182 2.147-29.39 8.749-57.825 21.726-84.563 9.411-19.391 20.253-37.788 35.027-53.666 2.25-2.418 4.117-5.193 6.453-8.004m51.464-25.983c-14.148 8.067-26.214 18.835-37.735 30.113-16.746 16.394-29.998 35.377-40.695 56.306-10.717 20.966-18.11 42.984-21.292 66.156-1.95 14.2-1.74 28.721-2.098 43.108-.493 19.84 3.777 39.037 9.61 57.786 9.256 29.754 24.444 56.5 44.906 79.887 16.753 19.147 36.622 34.852 59.081 47.045 24.04 13.05 49.432 22.533 76.707 25.298 17.15 1.739 34.6 2.483 51.783 1.451 20.775-1.248 41.198-6.024 60.287-14.686 13.88-6.299 27.678-13.035 40.687-20.937 14.936-9.072 27.346-21.423 39.615-33.916 13.905-14.158 25.127-30.124 34.31-47.485 9.586-18.125 16.339-37.322 20.642-57.524 5.3-24.872 5.778-49.854 3.011-74.837-2.104-18.992-7.198-37.414-14.718-55.188-10.41-24.608-24.063-47.062-42.218-66.635-18.74-20.204-40.603-36.397-65.423-48.4-33.372-16.138-68.53-23.578-105.726-22.14-18.111.7-35.758 3.33-53.06 8.349-20.236 5.867-39.457 14.129-57.674 26.249"/><path fill="#1B66CE" d="M138.16 70.187c17.93-11.9 37.15-20.16 57.385-26.028 17.303-5.018 34.95-7.649 53.06-8.349 37.198-1.438 72.355 6.002 105.727 22.14 24.82 12.003 46.682 28.196 65.423 48.4 18.155 19.573 31.808 42.027 42.218 66.635 7.52 17.774 12.614 36.196 14.718 55.188 2.767 24.983 2.288 49.965-3.01 74.837-4.304 20.202-11.057 39.399-20.643 57.524-9.183 17.361-20.405 33.327-34.31 47.485-12.27 12.493-24.68 24.844-39.615 33.916-13.009 7.902-26.806 14.638-40.687 20.937-19.089 8.662-39.512 13.438-60.287 14.686-17.182 1.032-34.632.288-51.783-1.451-27.275-2.765-52.668-12.248-76.707-25.298-22.46-12.193-42.328-27.898-59.081-47.045-20.462-23.386-35.65-50.133-44.906-79.887-5.833-18.749-10.103-37.945-9.61-57.786.358-14.387.148-28.908 2.098-43.108 3.182-23.172 10.575-45.19 21.292-66.156 10.697-20.93 23.949-39.912 40.695-56.306 11.521-11.278 23.587-22.046 38.023-30.334M51.067 206.674c-2.022 16.629-5.166 33.22-5.712 49.897-.435 13.31 1.772 26.8 3.744 40.072 2.808 18.894 9.278 36.793 17.778 53.819 8.183 16.39 18.16 31.669 30.324 45.53 13.271 15.126 28.272 28.121 45.069 39.126 13.849 9.074 28.667 16.2 44.319 21.47 9.441 3.18 18.992 6.408 28.754 8.178 18.639 3.38 37.376 5.346 56.519 3.466 16.136-1.585 31.936-4.242 47.413-8.863 25.332-7.562 48.037-20.091 69.013-36.143 16.593-12.698 30.327-28.007 42.277-44.878 9.617-13.577 17.438-28.172 23.493-43.895 8.96-23.267 14.16-47.163 14.766-71.92.397-16.246-1.23-32.415-4.537-48.507-5.16-25.101-14.412-48.448-28.09-69.9-10.168-15.948-21.094-31.617-36.192-43.456-12.253-9.608-24.661-19.185-37.882-27.349-16.592-10.246-34.71-17.576-53.888-21.636-12.48-2.642-25.063-5.694-37.723-6.423-31.54-1.815-62.075 3.367-91.658 15.01-17.373 6.837-33.238 15.989-48.238 26.79-22.857 16.457-41.015 37.377-55.647 61.277-10.931 17.854-18.217 37.359-23.902 58.335"/><path fill="#1A65CD" d="M51.162 206.271c5.59-20.573 12.876-40.078 23.807-57.932 14.632-23.9 32.79-44.82 55.647-61.278 15-10.8 30.865-19.952 48.238-26.789 29.583-11.643 60.118-16.825 91.658-15.01 12.66.729 25.242 3.78 37.723 6.423 19.179 4.06 37.296 11.39 53.888 21.636 13.22 8.164 25.63 17.74 37.882 27.349 15.098 11.84 26.024 27.508 36.192 43.455 13.678 21.453 22.93 44.8 28.09 69.9 3.308 16.093 4.934 32.262 4.537 48.508-.605 24.757-5.806 48.653-14.766 71.92-6.055 15.723-13.876 30.318-23.493 43.895-11.95 16.87-25.684 32.18-42.277 44.878-20.976 16.052-43.681 28.581-69.013 36.143-15.477 4.62-31.277 7.278-47.413 8.863-19.143 1.88-37.88-.086-56.519-3.466-9.762-1.77-19.313-4.999-28.754-8.177-15.652-5.27-30.47-12.397-44.32-21.471-16.796-11.005-31.797-24-45.068-39.125-12.163-13.862-22.141-29.141-30.324-45.531-8.5-17.026-14.97-34.925-17.778-53.819-1.972-13.271-4.18-26.762-3.744-40.072.546-16.677 3.69-33.268 5.807-50.3m99.594-116.087c-5.094 3.72-10.214 7.406-15.276 11.168-15.09 11.215-27.953 24.725-38.831 39.92-15.448 21.58-26.128 45.433-32.122 71.406-6.104 26.455-7.082 52.914-1.98 79.628 4.994 26.14 14.367 50.418 29.04 72.726 12.567 19.108 27.667 35.71 46.01 49.368 16.107 11.994 33.463 21.516 52.442 28.345 15.74 5.663 31.811 10.152 48.365 10.982 25.247 1.266 50.508.952 74.995-7.47 15.742-5.414 31.024-11.445 45.447-19.955 22.14-13.062 40.696-30.083 56.18-50.247 15.004-19.537 25.699-41.615 32.12-65.44 2.925-10.85 4.154-22.164 6.047-33.285 3.255-19.115 1.348-38.162-2.048-56.953-3.469-19.189-9.91-37.495-19.007-54.915-8.386-16.06-18.682-30.66-31.046-43.763-14.563-15.434-31.296-28.232-49.88-38.487-14.477-7.99-29.925-13.76-45.86-17.986-20.125-5.335-40.76-5.92-61.45-5.223-17.432.588-34.487 3.863-50.623 10.134-14.348 5.575-27.956 13.053-42.523 20.047"/><path fill="#1864CA" d="M151.072 90.006c14.251-6.816 27.86-14.294 42.207-19.87 16.136-6.27 33.19-9.545 50.623-10.133 20.69-.697 41.325-.112 61.45 5.223 15.935 4.225 31.383 9.997 45.86 17.986 18.584 10.255 35.317 23.053 49.88 38.487 12.364 13.103 22.66 27.703 31.046 43.763 9.097 17.42 15.538 35.726 19.007 54.915 3.396 18.791 5.303 37.838 2.048 56.953-1.893 11.121-3.122 22.435-6.046 33.286-6.422 23.824-17.117 45.902-32.12 65.44-15.485 20.163-34.041 37.184-56.181 50.246-14.423 8.51-29.705 14.54-45.447 19.955-24.487 8.422-49.748 8.736-74.995 7.47-16.554-.83-32.625-5.319-48.365-10.982-18.979-6.83-36.335-16.351-52.442-28.345-18.343-13.658-33.443-30.26-46.01-49.368-14.673-22.308-24.046-46.586-29.04-72.726-5.102-26.714-4.124-53.173 1.98-79.628 5.994-25.973 16.674-49.827 32.122-71.406 10.878-15.195 23.742-28.705 38.83-39.92 5.063-3.762 10.183-7.448 15.593-11.346m259.814 93.156c-1.958-25.966-15.127-43.891-38.935-54.938-.827-1.388-1.355-3.15-2.537-4.097-4.407-3.535-8.917-6.966-13.589-10.141-21.94-14.915-46.036-24.218-72.23-28.72-22.393-3.847-44.406-2.532-66.314 2.538-21.302 4.93-41.044 13.69-58.928 26.227-5.68 3.98-10.266 9.522-15.883 14.765-8.93 3.505-16.668 8.706-23.293 15.702-8.748 9.236-13.194 20.466-16.556 32.749-.88.937-2.116 1.724-2.585 2.835-3.364 7.963-7.255 15.79-9.697 24.04-6.506 21.973-9.77 44.34-7.462 67.425 2.09 20.907 7.081 40.913 15.999 59.91.84 1.792 2.828 3.046 4.652 5.212.184.806.387 1.608.55 2.418 5.089 25.479 23.057 43.935 48.159 48.625 7.1 1.326 14.504 1.016 22.003 2.072.735.646 1.384 1.44 2.216 1.919 18.165 10.447 37.33 17.587 58.297 20.636 17.212 2.502 34.208 2.207 51.028-.783 17.39-3.091 33.907-9.459 49.351-18.225 1.577-.895 2.589-2.783 4.795-4.318 4.323-.053 8.657.08 12.966-.19 20.945-1.304 37.215-10.632 48.73-28.316 5.682-8.726 8.108-18.406 10.065-28.756 1.852-3.671 3.977-7.232 5.512-11.031 9.14-22.624 12.806-46.043 12.025-70.535-.69-21.65-5.876-41.979-13.763-61.838-.694-1.747-2.86-2.91-4.576-5.185"/><path fill="#115EC3" d="M338.995 389.12c-1.274 1.428-2.286 3.316-3.863 4.211-15.444 8.766-31.961 15.134-49.351 18.225-16.82 2.99-33.816 3.285-51.028.783-20.967-3.049-40.132-10.19-58.297-20.636-.832-.479-1.481-1.273-1.943-2.317 1.249-.555 2.252-.619 3.198-.884 8.82-2.466 13.987-9.342 13.127-17.412-.893-8.381-6.935-14.172-15.948-14.958-3.64-.318-7.328-.03-10.99-.153-10.99-.367-19.495-5.057-24.797-14.844-3.465-6.395-3.148-13.455-3.125-20.461.044-13.15-5.886-19.211-18.98-20.06-.3-2.206-.447-4.036-.919-5.778-5.13-18.952-6.595-38.119-3.385-57.55 1.348-8.162 2.862-16.297 4.72-24.496 10.562.268 17.265-5.283 18.332-15.242.423-3.947.15-7.965.272-11.948.43-13.942 8.936-24.347 22.577-26.998 4.181-.813 8.596-.597 12.901-.562 7.26.06 13.453-1.848 17.232-8.598 3.778-6.748 2.038-12.99-1.692-19.27 16.348-11.181 34.723-16.307 53.583-17.823 21.453-1.725 43.225-1.632 63.718 7.029 7.704 3.256 15.143 7.138 22.555 11.056-8.445 8.196-2.5 26.196 10.32 27.107 4.305.305 8.632.342 12.95.461 14.043.386 24.406 8.744 27.191 22.434.785 3.857.594 7.94.617 11.92.077 13.273 4.23 18.395 17.036 21.16 1.076 5.075 2.265 9.732 3.187 14.441 2.886 14.738 4.331 29.576 1.943 44.525-1.517 9.497-3.412 18.933-5.538 28.47-11.54 1.875-16.424 7.493-16.597 18.735-.038 2.494.014 4.989-.01 7.483-.171 17.208-11.611 28.629-28.788 28.846-4.305.054-8.692-.107-12.893.65-8.386 1.51-13.993 9.2-13.15 17.233.921 8.77 7.223 14.827 15.835 15.221m-54.05-18.607c4.571-1.483 9.354-2.516 13.67-4.543 8.856-4.16 18.259-7.786 25.995-13.562 13.45-10.042 25.336-21.895 33.533-37.008 9.68-17.847 16.073-36.681 15.622-57.043-.251-11.348-1.618-23.002-4.695-33.892-7.21-25.516-21.752-46.579-43.512-61.98-26.557-18.795-55.913-26.314-88.387-20.497-24.88 4.457-46.226 15.484-63.943 33.376-10.156 10.257-17.916 22.27-23.654 35.526-9.022 20.84-11.854 42.695-7.943 64.902 5.667 32.175 21.801 58.177 48.822 77.14 18.958 13.302 40.155 20.1 63.038 20.829 10.173.324 20.428-1.946 31.454-3.248"/><path fill="#1561C7" d="M327.04 130.113c-7.56-3.597-14.999-7.479-22.703-10.735-20.493-8.66-42.265-8.754-63.718-7.03-18.86 1.517-37.235 6.643-53.892 17.658-4.134-3.89-8.933-5.314-13.961-4.91-9.946.798-19.847 2.157-29.766 3.284 5.087-4.827 9.673-10.368 15.353-14.35 17.884-12.535 37.626-21.296 58.928-26.226 21.908-5.07 43.921-6.385 66.314-2.537 26.194 4.501 50.29 13.804 72.23 28.719 4.672 3.175 9.182 6.606 13.59 10.14 1.18.948 1.709 2.71 2.166 4.47-7.529-.953-14.642-2.94-21.856-3.42-7.837-.522-16.206-1.592-22.684 4.937"/><path fill="#FDFEFF" d="M142.735 128.588c10.184-1.335 20.085-2.694 30.03-3.493 5.03-.403 9.828 1.02 13.736 5.198 4.265 6.16 6.005 12.401 2.227 19.149-3.779 6.75-9.972 8.658-17.232 8.598-4.305-.035-8.72-.25-12.9.562-13.642 2.651-22.148 13.056-22.578 26.998-.123 3.983.151 8.001-.272 11.948-1.067 9.959-7.77 15.51-18.669 15.107-10.748-3.287-13.987-7.495-14.054-17.782-.04-5.92.19-11.842.3-17.764 2.66-12.145 7.106-23.375 15.854-32.611 6.625-6.996 14.363-12.197 23.558-15.91M117 301.03c13.092.433 19.022 6.495 18.978 19.644-.023 7.006-.34 14.066 3.125 20.461 5.302 9.787 13.806 14.477 24.797 14.844 3.662.123 7.35-.165 10.99.153 9.013.786 15.055 6.577 15.948 14.958.86 8.07-4.307 14.946-13.127 17.412-.946.265-1.95.329-3.315.576-7.655-.35-15.06-.04-22.16-1.366-25.1-4.69-43.07-23.146-48.159-48.625-.162-.81-.365-1.612-.627-3.21-.193-7.703-.666-14.638-.24-21.517.16-2.576 1.865-5.642 3.838-7.379 2.853-2.511 6.591-4.017 9.952-5.952M339.461 389.067c-9.078-.341-15.38-6.399-16.3-15.168-.844-8.032 4.763-15.723 13.149-17.233 4.201-.757 8.588-.596 12.893-.65 17.177-.217 28.617-11.638 28.788-28.846.024-2.494-.028-4.989.01-7.483.173-11.242 5.057-16.86 16.961-18.577 9.285 1.47 13.582 5.05 15.164 13.728 1.019 5.59.669 11.432.932 17.16-1.327 10.103-3.753 19.783-9.435 28.509-11.515 17.684-27.785 27.012-48.73 28.317-4.309.268-8.643.136-13.432.243M326.892 130.434c6.627-6.85 14.996-5.78 22.833-5.258 7.214.48 14.327 2.467 21.88 3.778 24.154 10.317 37.323 28.242 39.35 55.09.062 3.54.056 6.196.05 8.853-.017 9.618-4.672 18.887-16.008 20.224-12.797-2.37-16.95-7.492-17.027-20.766-.023-3.98.168-8.062-.617-11.919-2.785-13.69-13.148-22.048-27.19-22.434-4.32-.119-8.646-.156-12.952-.461-12.819-.911-18.764-18.911-10.319-27.107"/><path fill="#1561C7" d="M116.998 300.613c-3.359 2.35-7.097 3.857-9.95 6.368-1.973 1.737-3.679 4.803-3.838 7.379-.426 6.879.047 13.814.056 21.186-1.562-1.043-3.55-2.297-4.39-4.088-8.918-18.998-13.909-39.004-15.999-59.911-2.307-23.085.956-45.452 7.462-67.424 2.442-8.25 6.333-16.078 9.697-24.041.47-1.111 1.705-1.898 2.936-2.904.241 5.853.012 11.775.05 17.695.068 10.287 3.307 14.495 13.637 17.833-1.103 8.283-2.617 16.418-3.965 24.58-3.21 19.431-1.745 38.598 3.385 57.55.472 1.742.62 3.572.92 5.777M395.006 213.516c11.327-1.732 15.982-11.001 16-20.62.005-2.656.011-5.312.066-8.431 1.53.972 3.696 2.135 4.39 3.882 7.887 19.859 13.073 40.188 13.763 61.838.781 24.492-2.885 47.91-12.025 70.535-1.535 3.799-3.66 7.36-5.827 11.154-.578-5.604-.228-11.445-1.247-17.036-1.582-8.678-5.879-12.259-14.764-13.8 1.362-9.623 3.257-19.06 4.774-28.556 2.388-14.949.943-29.787-1.943-44.525-.922-4.709-2.111-9.366-3.187-14.441"/><path fill="#0E5CBF" d="M284.541 370.617c-10.622 1.198-20.877 3.468-31.05 3.144-22.883-.729-44.08-7.527-63.038-20.83-27.02-18.962-43.155-44.964-48.822-77.14-3.91-22.206-1.079-44.06 7.943-64.901 5.738-13.256 13.498-25.27 23.654-35.526 17.717-17.892 39.063-28.92 63.943-33.376 32.474-5.817 61.83 1.702 88.387 20.498 21.76 15.4 36.301 36.463 43.512 61.979 3.077 10.89 4.444 22.544 4.695 33.892.451 20.362-5.942 39.196-15.622 57.043-8.197 15.113-20.082 26.966-33.533 37.008-7.736 5.776-17.139 9.402-25.995 13.562-4.316 2.027-9.099 3.06-14.074 4.647m31.29-174.772c-4.153-3.31-7.983-7.17-12.512-9.842-27.174-16.037-55.312-19.178-84.027-4.466-7.729 3.96-14.54 9.713-22.367 14.34-2.871-1.463-5.595-3.591-8.64-4.268-10.276-2.284-19.155 5.513-19.221 17.145-.183 32.24-.199 64.485.113 96.724.038 3.997 1.614 8.57 3.94 11.834 5.112 7.175 12.446 6.687 19.951 4.495.498.83.843 1.817 1.515 2.464 16.713 16.085 37.059 23.563 59.88 24.668 15.794.764 30.759-3.352 44.734-10.26 8.224-4.064 16.418-8.794 22.676-16.666 12.104 4.18 22.9-4.2 23.03-17.66.305-31.792.214-63.59-.06-95.382-.032-3.694-1.346-8.053-3.58-10.925-6.638-8.527-16.023-8.93-25.432-2.201"/><path fill="#FEFEFF" d="M193.003 321.12c-7.44 2.879-14.774 3.367-19.886-3.808-2.326-3.264-3.902-7.837-3.94-11.834-.312-32.24-.296-64.483-.113-96.724.066-11.632 8.945-19.429 19.22-17.145 3.046.677 5.77 2.805 9.118 4.737 1.85 4.595 3.992 8.643 4.423 12.865.702 6.87.286 13.855.272 21.256-.023 18.153.024 35.841-.003 53.994-.08 6.24-.27 12.022-.05 17.79.304 7.955-1.764 14.62-9.04 18.87M316.48 196.179c8.76-7.063 18.145-6.66 24.782 1.867 2.235 2.872 3.55 7.231 3.581 10.925.274 31.793.365 63.59.06 95.382-.13 13.46-10.926 21.84-23.531 17.27-6.696-4.33-9.531-10-9.396-17.307.076-4.104-.088-8.213-.074-12.783.023-23.486-.024-46.508.003-69.993.081-3.248.148-6.034.083-8.817-.14-5.969.24-11.777 4.493-16.544"/><path fill="#0C59BB" d="M311.831 291.997c.057 4.106.221 8.215.145 12.319-.135 7.306 2.7 12.976 8.98 17.245-5.341 8.324-13.535 13.054-21.76 17.119-13.974 6.907-28.939 11.023-44.732 10.259-22.822-1.105-43.168-8.583-59.88-24.668-.673-.647-1.018-1.635-1.548-2.807 7.244-4.593 9.312-11.258 9.008-19.214-.22-5.767-.03-11.55.356-17.673 1.263.616 2.353 1.46 2.994 2.564 6.634 11.425 16.304 19.382 28.27 24.613 2.64 1.155 5.64 1.493 8.748 2.414.833 1.137 1.23 2.23 1.976 2.971 7.574 7.507 15.584 7.767 25.112.874 3.36-.477 6.42-.563 9.201-1.486 11.554-3.837 20.516-11.349 28.318-20.466 1.348-1.575 3.196-2.72 4.812-4.064M316.156 196.012c-3.928 4.934-4.307 10.742-4.168 16.71.065 2.784-.002 5.57-.434 8.791-1.903-.542-3.58-1.32-4.816-2.544-2.353-2.329-4.267-5.117-6.696-7.354-8.513-7.84-17.57-14.7-30.287-14.765-1.733-1.265-3.022-2.63-4.587-3.497-8.666-4.792-16.65-2.196-24.476 7.677-3.12.622-6.04.784-8.471 1.96-10.448 5.056-19.583 11.69-25.415 22.162-1.053 1.892-3.068 3.248-4.639 4.851-.056-6.937.36-13.921-.342-20.792-.431-4.222-2.573-8.27-4.125-12.714 7.053-5.247 13.863-11 21.592-14.96 28.715-14.712 56.853-11.571 84.027 4.466 4.53 2.673 8.359 6.531 12.837 10.009"/><path fill="#0856B7" d="M202.097 230.467c1.641-2.067 3.656-3.423 4.71-5.315 5.831-10.472 14.966-17.106 25.414-22.162 2.43-1.176 5.351-1.338 8.417-1.495.198 3.287-.122 6.1-.125 8.913-.036 30.77-.079 61.54.05 92.308.016 3.75 1.025 7.497 1.574 11.245-2.834-.714-5.832-1.052-8.474-2.207-11.965-5.231-21.635-13.188-28.269-24.613-.641-1.104-1.731-1.948-2.92-3.028-.353-17.805-.4-35.493-.377-53.646M270.072 196.98c12.4-.066 21.457 6.795 29.97 14.635 2.429 2.237 4.343 5.025 6.696 7.354 1.237 1.224 2.913 2.002 4.742 3.008.398 23.048.445 46.07.422 69.556-1.687 1.808-3.535 2.953-4.883 4.528-7.802 9.117-16.764 16.63-28.318 20.466-2.78.923-5.84 1.009-9.057 1.156 1.098-4.958 3.625-9.579 3.68-14.23.36-30.4.343-60.809.03-91.21-.052-5.098-2.137-10.175-3.282-15.262"/><path fill="#FDFEFF" d="M269.755 196.85c1.462 5.218 3.547 10.295 3.6 15.392.312 30.402.329 60.81-.031 91.211-.055 4.651-2.582 9.272-4.109 14.237-9.243 7.216-17.253 6.956-24.827-.551-.746-.74-1.143-1.834-1.976-2.971-.824-3.955-1.833-7.702-1.849-11.452-.129-30.769-.086-61.539-.05-92.308.003-2.813.323-5.626.55-8.905 7.455-10.346 15.439-12.942 24.105-8.15 1.565.866 2.854 2.232 4.587 3.497"/></svg>